<?xml version="1.0" standalone="no"?>
<!DOCTYPE svg PUBLIC "-//W3C//DTD SVG 20010904//EN"
 "http://www.w3.org/TR/2001/REC-SVG-20010904/DTD/svg10.dtd">
<svg version="1.0" xmlns="http://www.w3.org/2000/svg"
 width="913.000000pt" height="913.000000pt" viewBox="0 0 913.000000 913.000000"
 preserveAspectRatio="xMidYMid meet">

<g transform="translate(0.000000,913.000000) scale(0.100000,-0.100000)"
fill="#000000" stroke="none">
<path d="M0 4565 l0 -4565 4565 0 4565 0 0 4565 0 4565 -2160 0 -2160 0 0
-560 0 -560 -230 0 -230 0 0 560 0 560 -2175 0 -2175 0 0 -4565z m2641 3419
c215 -37 395 -125 548 -270 172 -161 281 -365 321 -599 l17 -100 1190 -3 1190
-2 239 279 c132 153 253 286 269 295 20 11 245 47 660 105 347 49 631 88 633
86 7 -7 24 -136 19 -141 -3 -4 -283 -46 -622 -94 -339 -48 -618 -90 -620 -92
-29 -29 -365 -425 -365 -430 0 -5 115 -8 255 -8 242 0 256 -1 275 -20 38 -38
27 -71 -63 -177 -46 -54 -242 -287 -437 -518 -194 -231 -379 -449 -411 -485
-31 -36 -263 -308 -514 -605 -251 -297 -492 -582 -536 -633 l-79 -93 0 -1164
0 -1165 635 0 635 0 0 -75 0 -75 -1350 0 -1350 0 0 75 0 75 638 2 637 3 3
1157 2 1158 -82 97 c-159 188 -1192 1408 -1236 1460 l-45 52 -41 -25 c-79 -50
-243 -123 -321 -144 -102 -28 -322 -38 -433 -20 -153 24 -317 89 -442 174 -67
45 -194 170 -250 246 -64 86 -142 250 -172 360 -20 74 -23 109 -23 270 0 215
15 288 89 446 59 125 115 204 210 300 157 158 341 254 561 294 126 23 245 24
366 4z m2021 -175 c34 -55 72 -114 83 -132 28 -45 27 -136 -1 -174 -38 -51
-81 -73 -143 -73 -110 0 -171 59 -171 164 0 53 5 70 33 114 34 55 131 200 134
201 0 1 30 -44 65 -100z m-3346 -5995 c45 -16 98 -65 113 -106 10 -27 9 -28
-23 -28 -29 0 -36 5 -44 30 -19 54 -115 91 -196 76 -50 -10 -99 -47 -110 -83
-19 -69 27 -113 181 -170 111 -41 169 -77 199 -123 23 -35 26 -48 22 -104 -5
-78 -35 -123 -105 -157 -41 -20 -62 -24 -143 -23 -103 1 -143 13 -199 60 -30
25 -61 81 -61 110 0 9 12 14 34 14 30 0 34 -3 40 -33 7 -38 47 -80 91 -97 46
-18 157 -15 200 5 68 33 85 126 33 182 -27 29 -110 73 -184 97 -70 23 -140 69
-164 108 -22 36 -26 100 -9 145 38 102 186 146 325 97z m4114 4 c46 -14 96
-52 115 -88 22 -42 19 -50 -20 -50 -27 0 -35 4 -35 19 0 28 -43 68 -86 80
-117 33 -224 -16 -224 -101 0 -58 37 -87 179 -143 168 -65 231 -125 231 -219
0 -107 -90 -185 -226 -194 -122 -8 -228 39 -270 119 -24 47 -19 69 16 69 20 0
32 -6 36 -17 29 -94 75 -124 189 -125 113 0 166 37 167 117 2 78 -39 112 -226
187 -138 55 -190 122 -166 216 30 120 166 176 320 130z m-3564 -255 c75 -142
147 -275 159 -296 l22 -37 159 295 159 295 38 0 37 0 -2 -342 -3 -343 -45 0
-45 0 -5 272 -5 272 -151 -277 c-83 -152 -157 -277 -163 -277 -7 0 -81 128
-164 285 l-152 285 -3 -282 c-2 -275 -3 -283 -22 -283 -20 0 -20 8 -20 345 l0
345 34 0 35 0 137 -257z m1228 -78 c86 -185 156 -340 156 -346 0 -6 -19 -9
-45 -7 l-45 3 -45 95 -45 95 -173 3 -173 2 -41 -97 c-33 -78 -45 -99 -63 -101
-18 -3 -22 0 -18 16 3 11 68 167 144 346 132 312 139 326 164 326 26 0 36 -18
184 -335z m654 320 c43 -19 79 -50 98 -87 18 -35 18 -121 0 -157 -22 -42 -81
-89 -121 -97 l-36 -6 24 -27 c14 -14 57 -74 95 -132 70 -105 98 -129 147 -129
18 0 25 -5 25 -20 0 -44 -114 -39 -162 7 -17 15 -65 80 -108 144 -43 64 -85
119 -93 122 -8 3 -35 8 -60 12 l-46 7 -3 -153 -3 -154 -45 0 -45 0 -3 343 -2
342 150 0 c113 0 160 -4 188 -15z m912 -10 l0 -25 -135 0 -135 0 0 -320 0
-320 -45 0 -45 0 0 320 0 320 -135 0 -135 0 0 25 0 25 315 0 315 0 0 -25z
m1570 0 l0 -25 -175 0 -175 0 0 -125 0 -125 150 0 150 0 0 -25 0 -25 -150 0
-150 0 0 -140 0 -140 175 0 175 0 0 -30 0 -30 -222 2 -223 3 -3 343 -2 342
225 0 225 0 0 -25z m508 -1 c104 -52 132 -177 61 -268 -24 -31 -88 -66 -121
-66 -21 -1 -21 -2 -5 -11 10 -6 52 -62 94 -125 84 -127 111 -154 155 -154 25
0 29 -4 26 -22 -3 -20 -10 -23 -53 -26 -73 -4 -100 18 -199 162 -48 69 -95
130 -106 136 -11 6 -40 13 -65 16 l-45 7 0 -157 0 -156 -45 0 -45 0 0 345 0
345 148 0 c139 0 151 -2 200 -26z m449 -257 c64 -153 119 -274 123 -270 4 4
56 131 116 280 105 263 110 273 136 273 25 0 27 -2 19 -22 -5 -13 -68 -167
-139 -343 l-130 -320 -32 0 -32 0 -105 250 c-58 138 -122 292 -144 343 l-38
93 55 -3 55 -3 116 -278z m1003 258 l0 -25 -175 0 -175 0 0 -125 0 -125 150 0
150 0 0 -25 0 -25 -150 0 -150 0 0 -140 0 -140 175 0 175 0 0 -30 0 -30 -220
0 -220 0 0 345 0 345 220 0 220 0 0 -25z"/>
<path d="M2657 6838 c20 -23 432 -512 602 -715 l94 -113 848 0 847 0 359 417
c197 230 360 421 361 425 2 5 -702 8 -1564 8 l-1567 0 20 -22z"/>
<path d="M5612 6434 l-362 -424 232 1 233 1 357 424 358 424 -228 -1 -227 0
-363 -425z"/>
<path d="M2823 1562 c-34 -81 -65 -155 -69 -164 -6 -17 5 -18 140 -18 80 0
146 2 146 5 0 8 -141 310 -148 317 -4 4 -35 -59 -69 -140z"/>
<path d="M3510 1630 l0 -153 73 5 c120 8 180 57 181 148 2 96 -51 141 -175
148 l-79 5 0 -153z"/>
<path d="M6480 1629 l0 -152 80 5 c89 5 118 19 158 78 28 42 29 103 2 148 -28
46 -89 72 -172 72 l-68 0 0 -151z"/>
</g>
</svg>
